<svg xmlns="http://www.w3.org/2000/svg" viewBox="0 0 512 512">
  <!-- Background with rounded corners -->
  <rect x="16" y="16" width="480" height="480" rx="80" ry="80" fill="#ffffff" stroke="#000000" stroke-width="12"/>
  
  <!-- Offset shadow effect -->
  <rect x="24" y="24" width="480" height="480" rx="80" ry="80" fill="none" stroke="#000000" stroke-width="8" opacity="0.2" transform="translate(8, 8)"/>
  
  <!-- Calculator/Document icon -->
  <rect x="140" y="100" width="232" height="312" rx="20" ry="20" fill="#00d4d4" stroke="#000000" stroke-width="8"/>
  
  <!-- Screen area -->
  <rect x="168" y="130" width="176" height="80" rx="8" ry="8" fill="#ffffff" stroke="#000000" stroke-width="4"/>
  
  <!-- Display text "MY" -->
  <text x="256" y="190" font-family="Arial Black, sans-serif" font-size="48" font-weight="bold" fill="#000000" text-anchor="middle">MY</text>
  
  <!-- Calculator buttons row 1 -->
  <rect x="168" y="230" width="50" height="40" rx="6" fill="#ffffff" stroke="#000000" stroke-width="3"/>
  <rect x="231" y="230" width="50" height="40" rx="6" fill="#ffffff" stroke="#000000" stroke-width="3"/>
  <rect x="294" y="230" width="50" height="40" rx="6" fill="#ffffff" stroke="#000000" stroke-width="3"/>
  
  <!-- Calculator buttons row 2 -->
  <rect x="168" y="285" width="50" height="40" rx="6" fill="#ffffff" stroke="#000000" stroke-width="3"/>
  <rect x="231" y="285" width="50" height="40" rx="6" fill="#ffffff" stroke="#000000" stroke-width="3"/>
  <rect x="294" y="285" width="50" height="40" rx="6" fill="#ffffff" stroke="#000000" stroke-width="3"/>
  
  <!-- Calculator buttons row 3 -->
  <rect x="168" y="340" width="50" height="40" rx="6" fill="#ffffff" stroke="#000000" stroke-width="3"/>
  <rect x="231" y="340" width="50" height="40" rx="6" fill="#000000"/>
  <rect x="294" y="340" width="50" height="40" rx="6" fill="#ffffff" stroke="#000000" stroke-width="3"/>
</svg>
